<svg width="512" height="512" viewBox="0 0 512 512" fill="none" xmlns="http://www.w3.org/2000/svg">
<path d="M405.333 21.333H106.667C78.3873 21.3669 51.2759 32.6158 31.2794 52.6124C11.2828 72.6089 0.0338743 99.7203 0 128L0 384C0.0338743 412.279 11.2828 439.39 31.2794 459.387C51.2759 479.384 78.3873 490.632 106.667 490.666H405.333C433.613 490.632 460.724 479.384 480.721 459.387C500.717 439.39 511.966 412.279 512 384V128C511.966 99.7203 500.717 72.6089 480.721 52.6124C460.724 32.6158 433.613 21.3669 405.333 21.333ZM106.667 63.9997H405.333C418.107 64.0248 430.582 67.872 441.151 75.0462C451.72 82.2203 459.901 92.3932 464.64 104.256L301.269 267.648C289.246 279.622 272.969 286.346 256 286.346C239.031 286.346 222.754 279.622 210.731 267.648L47.36 104.256C52.0992 92.3932 60.2798 82.2203 70.849 75.0462C81.4183 67.872 93.8926 64.0248 106.667 63.9997ZM405.333 448H106.667C89.6928 448 73.4142 441.257 61.4118 429.255C49.4095 417.252 42.6667 400.974 42.6667 384V160L180.565 297.813C200.589 317.786 227.717 329.003 256 329.003C284.283 329.003 311.411 317.786 331.435 297.813L469.333 160V384C469.333 400.974 462.591 417.252 450.588 429.255C438.586 441.257 422.307 448 405.333 448Z" fill="white"/>
</svg>
