<svg width="512" height="512" viewBox="0 0 512 512" fill="none" xmlns="http://www.w3.org/2000/svg">
<g clip-path="url(#clip0_69_15331)">
<path d="M373.333 19.5625C349.311 19.9362 325.812 26.642 305.211 39.003C284.609 51.3639 267.634 68.9421 256 89.9625C244.366 68.9421 227.391 51.3639 206.789 39.003C186.188 26.642 162.689 19.9362 138.667 19.5625C100.372 21.2263 64.2924 37.9786 38.31 66.1595C12.3277 94.3403 -1.44534 131.659 5.38736e-06 169.963C5.38736e-06 314.496 233.728 481.429 243.669 488.512L256 497.237L268.331 488.512C278.272 481.472 512 314.496 512 169.963C513.445 131.659 499.672 94.3403 473.69 66.1595C447.708 37.9786 411.628 21.2263 373.333 19.5625ZM256 444.715C186.603 392.875 42.6667 265.515 42.6667 169.963C41.2083 142.97 50.4825 116.495 68.4664 96.3134C86.4504 76.1315 111.685 63.8793 138.667 62.2292C165.648 63.8793 190.883 76.1315 208.867 96.3134C226.851 116.495 236.125 142.97 234.667 169.963H277.333C275.875 142.97 285.149 116.495 303.133 96.3134C321.117 76.1315 346.352 63.8793 373.333 62.2292C400.315 63.8793 425.55 76.1315 443.534 96.3134C461.518 116.495 470.792 142.97 469.333 169.963C469.333 265.557 325.397 392.875 256 444.715Z" fill="white"/>
</g>
<defs>
<clipPath id="clip0_69_15331">
<rect width="512" height="512" fill="white"/>
</clipPath>
</defs>
</svg>
