<svg width="512" height="512" viewBox="0 0 512 512" fill="none" xmlns="http://www.w3.org/2000/svg">
<g clip-path="url(#clip0_69_15346)">
<path d="M341.333 405.333C341.333 464.149 293.483 512 234.667 512H106.667C47.8507 512 0 464.149 0 405.333V106.667C0 47.8507 47.8507 0 106.667 0H234.667C265.237 0 294.379 13.1627 314.667 36.096C322.475 44.928 321.643 58.4107 312.811 66.1973C304 74.0053 290.517 73.1947 282.709 64.3413C270.528 50.56 253.013 42.6453 234.688 42.6453H106.667C71.3813 42.6453 42.6667 71.36 42.6667 106.645V341.312H234.667C246.443 341.312 256 350.848 256 362.645C256 374.443 246.443 383.979 234.667 383.979H42.6667V405.312C42.6667 440.597 71.3813 469.312 106.667 469.312H234.667C269.952 469.312 298.667 440.597 298.667 405.312C298.667 393.515 308.203 383.979 320 383.979C331.797 383.979 341.333 393.536 341.333 405.333ZM149.333 405.333C137.557 405.333 128 414.869 128 426.667C128 438.464 137.557 448 149.333 448H192C203.776 448 213.333 438.464 213.333 426.667C213.333 414.869 203.776 405.333 192 405.333H149.333ZM512 160.021V245.333C512 274.795 488.128 298.667 458.667 298.667H394.667L334.379 337.643C318.955 347.52 298.709 336.427 298.709 318.123L298.667 160.021C298.667 130.667 322.667 106.667 352 106.667H458.667C488.107 106.688 512 130.56 512 160.021ZM469.333 184.555C469.333 165.12 454.997 149.355 437.333 149.355C419.669 149.355 405.333 165.12 405.333 184.555C405.333 165.12 390.997 149.355 373.333 149.355C355.669 149.355 341.333 165.12 341.333 184.555C341.333 210.688 373.483 241.045 392.213 256.491C399.872 262.805 410.795 262.805 418.453 256.491C437.184 241.024 469.333 210.667 469.333 184.555Z" fill="white"/>
</g>
<defs>
<clipPath id="clip0_69_15346">
<rect width="512" height="512" fill="white"/>
</clipPath>
</defs>
</svg>
