<svg width="512" height="512" viewBox="0 0 512 512" fill="none" xmlns="http://www.w3.org/2000/svg">
<g clip-path="url(#clip0_69_15339)">
<path d="M319.744 271.488C323.115 309.461 293.291 341.333 256 341.333H171.136C156.395 341.333 145.941 327.125 150.336 313.067C161.045 278.741 191.637 224.213 240.789 214.763C278.229 207.552 316.373 233.515 319.744 271.488ZM490.667 192C478.869 192 469.333 201.536 469.333 213.333V320C469.333 355.285 440.619 384 405.333 384H106.667C71.3813 384 42.6667 355.285 42.6667 320V149.333C42.6667 114.048 71.3813 85.3334 106.667 85.3334H277.333C289.131 85.3334 298.667 75.7974 298.667 64.0001C298.667 52.2027 289.131 42.6667 277.333 42.6667H106.667C47.8507 42.6667 0 90.5174 0 149.333V320C0 378.816 47.8507 426.667 106.667 426.667H234.667V469.333H170.667C158.891 469.333 149.333 478.869 149.333 490.667C149.333 502.464 158.891 512 170.667 512H341.333C353.131 512 362.667 502.464 362.667 490.667C362.667 478.869 353.131 469.333 341.333 469.333H277.333V426.667H405.333C464.149 426.667 512 378.816 512 320V213.333C512 201.536 502.464 192 490.667 192ZM289.835 185.28C289.984 185.344 290.155 185.408 290.304 185.493C298.496 189.077 308.011 186.752 313.963 180.075L434.304 49.3014C441.728 41.0027 454.485 40.2987 462.763 47.7227C463.04 47.9787 463.296 48.2134 463.573 48.4907C471.445 56.3414 471.445 69.0774 463.595 76.9494C463.595 76.9494 463.595 76.9494 463.573 76.9707L338.901 198.272C331.84 205.333 330.837 216.277 336.277 224.661C336.363 224.789 336.448 224.917 336.512 225.024C343.744 236.309 359.509 237.952 368.981 228.48L493.653 107.2C518.144 82.6667 518.144 42.9227 493.653 18.3894C469.141 -6.14392 429.397 -6.16525 404.864 18.3467C404.032 19.1787 281.963 151.808 281.963 151.808C272.256 162.709 276.437 179.499 289.835 185.28Z" fill="white"/>
</g>
<defs>
<clipPath id="clip0_69_15339">
<rect width="512" height="512" fill="white"/>
</clipPath>
</defs>
</svg>
