<svg width="512" height="512" viewBox="0 0 512 512" fill="none" xmlns="http://www.w3.org/2000/svg">
<g clip-path="url(#clip0_69_15341)">
<path d="M470.549 111.573L313.237 36.6289C278.609 15.9449 235.509 15.5779 200.533 35.6689L41.4509 111.573C40.8539 111.872 40.2349 112.192 39.6589 112.533C1.90694 134.119 -11.1991 182.222 10.3869 219.974C17.7039 232.772 28.4669 243.258 41.4509 250.24L85.3339 271.147V375.68C85.3599 422.423 115.775 463.719 160.406 477.611C191.465 486.596 223.67 490.995 256.001 490.667C288.327 491.029 320.532 486.667 351.596 477.718C396.227 463.827 426.642 422.53 426.668 375.787V271.104L469.335 250.709V426.666C469.335 438.448 478.886 447.999 490.668 447.999C502.45 447.999 512.001 438.448 512.001 426.666V170.666C512.143 145.615 492.363 122.473 470.549 111.573ZM384 375.787C384.011 403.746 365.871 428.477 339.2 436.864C312.154 444.592 284.127 448.343 256 448C227.873 448.343 199.846 444.592 172.8 436.864C146.129 428.476 127.989 403.746 128 375.787V291.478L198.763 325.185C216.223 335.553 236.164 341.001 256.47 340.95C275.798 341.087 294.801 335.97 311.446 326.145L384 291.477V375.787ZM452.267 211.733L291.371 288.533C268.937 301.596 241.13 301.226 219.051 287.573L61.6319 212.693C44.0849 203.231 37.5309 181.336 46.9929 163.79C50.1929 157.856 54.9909 152.937 60.8429 149.589L220.736 73.2159C243.177 60.1819 270.969 60.5509 293.056 74.1759L450.368 149.12C461.937 155.544 469.175 167.675 469.333 180.907C469.354 193.441 462.9 205.097 452.267 211.733Z" fill="white"/>
</g>
<defs>
<clipPath id="clip0_69_15341">
<rect width="512" height="512" fill="white"/>
</clipPath>
</defs>
</svg>
