<svg width="512" height="512" viewBox="0 0 512 512" fill="none" xmlns="http://www.w3.org/2000/svg">
<g clip-path="url(#clip0_69_15325)">
<path d="M493.248 193.472L331.434 31.6374C311.408 11.6692 284.281 0.456055 256 0.456055C227.719 0.456055 200.592 11.6692 180.565 31.6374L18.7518 193.472C12.7875 199.398 8.05886 206.449 4.83993 214.216C1.621 221.983 -0.0241768 230.312 -0.000230586 238.72V448.149C-0.000230586 465.123 6.74261 481.402 18.7449 493.404C30.7473 505.407 47.0259 512.149 63.9998 512.149H448C464.974 512.149 481.252 505.407 493.255 493.404C505.257 481.402 512 465.123 512 448.149V238.72C512.024 230.312 510.379 221.983 507.16 214.216C503.941 206.449 499.212 199.398 493.248 193.472ZM320 469.483H192V385.557C192 368.584 198.743 352.305 210.745 340.303C222.747 328.3 239.026 321.557 256 321.557C272.974 321.557 289.252 328.3 301.255 340.303C313.257 352.305 320 368.584 320 385.557V469.483ZM469.333 448.149C469.333 453.807 467.086 459.234 463.085 463.234C459.084 467.235 453.658 469.483 448 469.483H362.666V385.557C362.666 357.268 351.428 330.137 331.424 310.133C311.421 290.129 284.29 278.891 256 278.891C227.71 278.891 200.579 290.129 180.575 310.133C160.571 330.137 149.333 357.268 149.333 385.557V469.483H63.9998C58.3418 469.483 52.9156 467.235 48.9148 463.234C44.9141 459.234 42.6664 453.807 42.6664 448.149V238.72C42.6862 233.066 44.9318 227.648 48.9171 223.637L210.73 61.8667C222.756 49.8972 239.033 43.1775 256 43.1775C272.967 43.1775 289.244 49.8972 301.269 61.8667L463.082 223.701C467.052 227.696 469.297 233.089 469.333 238.72V448.149Z" fill="white"/>
</g>
<defs>
<clipPath id="clip0_69_15325">
<rect width="512" height="512" fill="white"/>
</clipPath>
</defs>
</svg>
