<svg width="512" height="512" viewBox="0 0 512 512" fill="none" xmlns="http://www.w3.org/2000/svg">
<g clip-path="url(#clip0_74_15405)">
<path d="M373.333 19.5625C349.311 19.9362 325.812 26.642 305.211 39.003C284.609 51.3639 267.634 68.9421 256 89.9625C244.366 68.9421 227.391 51.3639 206.789 39.003C186.188 26.642 162.689 19.9362 138.667 19.5625C100.372 21.2263 64.2924 37.9786 38.31 66.1595C12.3277 94.3403 -1.44534 131.659 5.39422e-06 169.963C5.39422e-06 314.496 233.728 481.429 243.669 488.512L256 497.237L268.331 488.512C278.272 481.472 512 314.496 512 169.963C513.445 131.659 499.672 94.3403 473.69 66.1595C447.708 37.9786 411.628 21.2263 373.333 19.5625Z" fill="white"/>
</g>
<defs>
<clipPath id="clip0_74_15405">
<rect width="512" height="512" fill="white"/>
</clipPath>
</defs>
</svg>
